<svg
   width="44"
   height="44"
   viewBox="0 0 120 120"
   version="1.1"
   id="svg1"
   xml:space="preserve"
   xmlns="http://www.w3.org/2000/svg">
   <defs id="defs1" />
   <g id="layer1"><path
       style="fill:#ec4740;fill-opacity:1;stroke-width:0.214398"
       d="m 34.931606,102.22617 c -3.653213,-0.7945 -5.679714,-2.05888 -9.619357,-6.001696 -3.867016,-3.870138 -5.585343,-5.083149 -7.385098,-5.213331 -2.628952,-0.190169 -4.724979,1.917626 -4.287265,4.311323 0.488103,2.669225 3.900065,2.851929 4.779106,0.255899 0.551254,-1.627995 1.665262,-0.668572 1.196203,1.030223 -0.766205,2.774969 -4.748869,3.552222 -7.024501,1.370893 -3.9416658,-3.778338 -0.771716,-10.613577 5.11763,-11.034965 2.956131,-0.211514 4.566906,0.527494 9.206985,4.2241 8.767207,6.984547 14.49376,4.704962 17.716054,-7.052262 1.385468,-5.055168 1.276887,-5.615256 -0.788238,-4.065946 C 33.769578,87.60784 22.6839,88.208529 13.2623,81.707455 4.9232214,75.953339 1.6132547,65.629043 5.6254911,57.88708 11.69987,46.166032 29.896438,49.017184 29.982377,61.703473 c 0.04608,6.803639 -6.905949,10.721051 -11.313027,6.374794 -3.462636,-3.414845 -1.147472,-9.696686 3.307274,-8.973781 2.008019,0.325856 2.519093,1.730537 0.640488,1.760354 -3.291717,0.05222 -4.542599,4.085268 -1.719832,5.544981 4.515532,2.33507 7.714334,-5.01909 3.859738,-8.873686 C 19.720849,52.499973 10.17354,55.996198 9.8050392,63.011558 9.3023852,72.580794 20.919222,79.167162 30.531074,74.76254 38.870255,70.941121 41.053886,63.709538 36.917257,53.613258 30.717242,38.480862 38.205291,22.228253 53.139037,18.404332 c 21.325854,-5.460677 38.381571,14.733846 29.758357,35.234863 -4.024628,9.568223 -1.877164,16.88985 6.132927,20.909836 9.792374,4.914454 21.475039,-1.369253 21.039969,-11.316677 -0.43778,-10.0093 -16.547173,-10.974314 -16.574706,-0.992887 -0.0094,3.390474 3.195801,5.673349 5.749491,4.095089 2.631725,-1.6265 1.568225,-5.118998 -1.63471,-5.368306 -2.631126,-0.204803 -1.729687,-1.83931 1.01032,-1.831936 5.446215,0.01466 6.055285,7.885824 0.79266,10.243861 C 91.738004,72.81726 86.572786,60.600778 93.007516,54.227481 103.14689,44.184899 119.3208,55.145554 115.50161,69.471167 111.1652,85.736855 91.132123,91.299581 76.655518,80.25783 c -2.030657,-1.548844 -1.924196,-1.53106 -1.924196,-0.321479 0,3.434135 2.415256,10.285825 4.406515,12.500594 3.662026,4.073049 8.000872,3.529542 14.606161,-1.829657 3.775727,-3.063434 4.917997,-3.606578 7.568912,-3.599047 6.38383,0.01818 10.15536,6.84113 6.00334,10.860502 -2.42713,2.349597 -6.418,1.555032 -6.97006,-1.387727 -0.34079,-1.816562 0.82467,-2.476409 1.32719,-0.751423 0.35683,1.224885 0.93845,1.671159 2.17802,1.671159 3.10157,0 3.24504,-4.502565 0.19059,-5.981205 -2.58502,-1.251384 -4.438695,-0.28758 -9.693248,5.039938 -5.457113,5.532895 -9.829057,6.998885 -15.972656,5.355895 -8.368349,-2.237935 -13.351301,-8.383053 -16.276314,-20.072395 -1.639813,-6.553251 -2.661023,-6.634229 -3.971146,-0.314889 -2.192815,10.577022 -7.156481,17.401337 -14.4117,19.813974 -3.820284,1.2704 -6.228496,1.54016 -8.78532,0.9841 z M 50.555902,52.867201 c 2.979384,-1.745792 2.763048,-6.170215 -0.371319,-7.594129 -3.58691,-1.629502 -7.357787,2.31142 -5.566674,5.817696 1.04554,2.046744 3.978989,2.92433 5.937993,1.776433 z m 22.078381,0.358108 c 2.68741,-0.746364 3.90372,-4.411378 2.182155,-6.575327 -1.773667,-2.229458 -4.81133,-2.32292 -6.670673,-0.205247 -2.77317,3.158474 0.379892,7.921655 4.488518,6.780574 z"
       id="path1" /></g>
</svg>
